<svg width="120" height="40" viewBox="0 0 120 40" fill="none" xmlns="http://www.w3.org/2000/svg">
  <path d="M20 10C14.477 10 10 14.477 10 20C10 25.523 14.477 30 20 30C25.523 30 30 25.523 30 20C30 14.477 25.523 10 20 10Z" fill="#4ECDC4"/>
  <path d="M20 15C17.239 15 15 17.239 15 20C15 22.761 17.239 25 20 25C22.761 25 25 22.761 25 20C25 17.239 22.761 15 20 15Z" fill="#0D2538"/>
  <path d="M20 5C11.716 5 5 11.716 5 20C5 28.284 11.716 35 20 35C28.284 35 35 28.284 35 20" stroke="#4ECDC4" stroke-width="2" stroke-linecap="round"/>
  <path d="M45 15H50.5C52.433 15 54 15.5 55.2 16.5C56.4 17.5 57 18.833 57 20.5C57 22.167 56.4 23.5 55.2 24.5C54 25.5 52.433 26 50.5 26H45V15ZM50.3 23C51.367 23 52.2 22.7 52.8 22.1C53.4 21.5 53.7 20.7 53.7 19.7C53.7 18.7 53.4 17.9 52.8 17.3C52.2 16.7 51.367 16.4 50.3 16.4H48.3V23H50.3Z" fill="white"/>
  <path d="M65.0781 15H68.3781L73.5781 26H69.9781L69.0781 23.8H64.3781L63.4781 26H59.8781L65.0781 15ZM68.0781 21.4L66.7781 18.1L65.4781 21.4H68.0781Z" fill="white"/>
  <path d="M75.1562 15H78.4562L82.2562 20.9L86.0562 15H89.3562V26H86.0562V19.7L82.2562 25.6L78.4562 19.7V26H75.1562V15Z" fill="white"/>
</svg>
