<svg width="64" height="64" viewBox="0 0 64 64" fill="none" xmlns="http://www.w3.org/2000/svg">
  <path d="M32 56C45.2548 56 56 45.2548 56 32C56 18.7452 45.2548 8 32 8C18.7452 8 8 18.7452 8 32C8 45.2548 18.7452 56 32 56Z" stroke="#4ECDC4" stroke-width="2" stroke-linecap="round" stroke-linejoin="round"/>
  <path d="M32 40C36.4183 40 40 36.4183 40 32C40 27.5817 36.4183 24 32 24C27.5817 24 24 27.5817 24 32C24 36.4183 27.5817 40 32 40Z" stroke="#4ECDC4" stroke-width="2" stroke-linecap="round" stroke-linejoin="round"/>
  <path d="M32 24V16" stroke="#4ECDC4" stroke-width="2" stroke-linecap="round" stroke-linejoin="round"/>
  <path d="M40 32H48" stroke="#4ECDC4" stroke-width="2" stroke-linecap="round" stroke-linejoin="round"/>
  <path d="M32 40V48" stroke="#4ECDC4" stroke-width="2" stroke-linecap="round" stroke-linejoin="round"/>
  <path d="M24 32H16" stroke="#4ECDC4" stroke-width="2" stroke-linecap="round" stroke-linejoin="round"/>
</svg>
