<svg width="600" height="400" viewBox="0 0 600 400" fill="none" xmlns="http://www.w3.org/2000/svg">
  <rect width="600" height="400" rx="8" fill="#0E2C44"/>
  <rect x="20" y="20" width="560" height="40" rx="4" fill="#071A29"/>
  <rect x="40" y="35" width="100" height="10" rx="2" fill="#4ECDC4"/>
  <rect x="460" y="35" width="100" height="10" rx="2" fill="#2A9D8F"/>
  
  <!-- Sidebar -->
  <rect x="20" y="80" width="160" height="300" rx="4" fill="#071A29"/>
  <rect x="40" y="100" width="120" height="10" rx="2" fill="#4ECDC4"/>
  <rect x="40" y="130" width="120" height="10" rx="2" fill="#2A9D8F" fill-opacity="0.6"/>
  <rect x="40" y="160" width="120" height="10" rx="2" fill="#2A9D8F" fill-opacity="0.6"/>
  <rect x="40" y="190" width="120" height="10" rx="2" fill="#2A9D8F" fill-opacity="0.6"/>
  <rect x="40" y="220" width="120" height="10" rx="2" fill="#2A9D8F" fill-opacity="0.6"/>
  
  <!-- Main Content -->
  <rect x="200" y="80" width="380" height="140" rx="4" fill="#071A29"/>
  <rect x="220" y="100" width="200" height="15" rx="2" fill="#4ECDC4"/>
  <rect x="220" y="125" width="340" height="10" rx="2" fill="#2A9D8F" fill-opacity="0.6"/>
  <rect x="220" y="145" width="300" height="10" rx="2" fill="#2A9D8F" fill-opacity="0.6"/>
  <rect x="220" y="165" width="320" height="10" rx="2" fill="#2A9D8F" fill-opacity="0.6"/>
  <rect x="220" y="185" width="280" height="10" rx="2" fill="#2A9D8F" fill-opacity="0.6"/>
  
  <!-- Charts -->
  <rect x="200" y="240" width="180" height="140" rx="4" fill="#071A29"/>
  <rect x="220" y="260" width="100" height="15" rx="2" fill="#4ECDC4"/>
  
  <!-- Chart 1 -->
  <path d="M220 340 L240 320 L260 330 L280 300 L300 310 L320 290 L340 300 L360 280" stroke="#4ECDC4" stroke-width="2"/>
  <circle cx="240" cy="320" r="3" fill="#4ECDC4"/>
  <circle cx="260" cy="330" r="3" fill="#4ECDC4"/>
  <circle cx="280" cy="300" r="3" fill="#4ECDC4"/>
  <circle cx="300" cy="310" r="3" fill="#4ECDC4"/>
  <circle cx="320" cy="290" r="3" fill="#4ECDC4"/>
  <circle cx="340" cy="300" r="3" fill="#4ECDC4"/>
  <circle cx="360" cy="280" r="3" fill="#4ECDC4"/>
  
  <!-- Chart 2 -->
  <rect x="400" y="240" width="180" height="140" rx="4" fill="#071A29"/>
  <rect x="420" y="260" width="100" height="15" rx="2" fill="#4ECDC4"/>
  
  <circle cx="460" cy="320" r="40" fill="#071A29" stroke="#4ECDC4" stroke-width="3"/>
  <path d="M460 320 L460 280" stroke="#4ECDC4" stroke-width="2"/>
  <path d="M460 320 L490 330" stroke="#2A9D8F" stroke-width="2"/>
  
  <path d="M460 280 A40 40 0 0 1 500 320" stroke="#4ECDC4" stroke-width="40" stroke-opacity="0.2"/>
  <path d="M460 280 A40 40 0 0 1 500 320" stroke="#4ECDC4" stroke-width="40" stroke-dasharray="75 125"/>
</svg>
